<svg id="Group_50" data-name="Group 50" xmlns="http://www.w3.org/2000/svg" xmlns:xlink="http://www.w3.org/1999/xlink" width="166.959" height="39.092" viewBox="0 0 166.959 39.092">
  <defs>
    <clipPath id="clip-path">
      <path id="Clip_20" data-name="Clip 20" d="M0,0H34.93V39.092H0Z" fill="none"/>
    </clipPath>
  </defs>
  <path id="Fill_1" data-name="Fill 1" d="M1.792,3.591A1.78,1.78,0,0,1,0,1.8,1.775,1.775,0,0,1,1.792,0a1.777,1.777,0,0,1,1.8,1.792A1.781,1.781,0,0,1,1.792,3.591ZM1.8.163a1.635,1.635,0,1,0-.006,3.269,1.62,1.62,0,0,0,1.634-1.64A1.611,1.611,0,0,0,1.8.163ZM1.437,2.916h-.4V.651h.9c.219,0,.73.057.73.58a.535.535,0,0,1-.465.534c.186.084.277.173.325.477a1.907,1.907,0,0,0,.17.672H2.234A1.011,1.011,0,0,1,2.145,2.6c-.008-.03-.027-.149-.042-.244-.007-.045-.013-.084-.017-.1C2.021,1.9,1.85,1.9,1.437,1.9V2.916ZM1.443.963v.612h.331c.34,0,.485-.093.485-.311,0-.277-.219-.3-.443-.3Z" transform="translate(163.367 30.445)" fill="#484a54"/>
  <path id="Fill_3" data-name="Fill 3" d="M0,13.58,8.729,2.657,0,2.725V0H12.611V3.165L3.9,14.022l8.89-.143v2.75H0Z" transform="translate(40.21 16.991)" fill="#484a54"/>
  <path id="Fill_5" data-name="Fill 5" d="M0,0H11.177V2.724H3.58V6.7h7.112V9.424H3.58v4.5h7.85V16.7H0Z" transform="translate(55.406 16.924)" fill="#484a54"/>
  <path id="Fill_7" data-name="Fill 7" d="M3.649,16.7H0V.006H6.4C6.614,0,6.864,0,7.111,0a6.435,6.435,0,0,1,4.345,1.138,4.232,4.232,0,0,1,1.453,3.209,3.768,3.768,0,0,1-1.428,3.117,5.77,5.77,0,0,1-2.047.969l-.013,0c2.506.23,2.7,1.652,3,3.8l0,.028c.225,1.72.377,2.687.51,3.233a3.014,3.014,0,0,0,.483,1.162l.026.038H9.49c-.05-.294-.137-.929-.237-1.665-.213-1.558-.5-3.691-.661-4.129-.323-.948-1.213-.948-1.8-.948H3.649V16.7ZM3.535,2.639V7.3H6.422a2.943,2.943,0,0,0,1.822-.462A2.322,2.322,0,0,0,9.169,4.9a2.091,2.091,0,0,0-.876-1.871,3.981,3.981,0,0,0-2.356-.389Z" transform="translate(69.192 16.918)" fill="#484a54"/>
  <path id="Fill_9" data-name="Fill 9" d="M7.967,17.457a8.042,8.042,0,0,1-5.912-2.285A8.917,8.917,0,0,1,0,8.935,10.363,10.363,0,0,1,1.755,2.8,7.339,7.339,0,0,1,8.013,0a7.7,7.7,0,0,1,5.868,2.263A9.665,9.665,0,0,1,16,8.545a10.192,10.192,0,0,1-2.1,6.536A7.92,7.92,0,0,1,7.967,17.457ZM8.04,2.562A3.8,3.8,0,0,0,4.965,3.971c-.824,1.006-1.224,2.592-1.224,4.85a7.582,7.582,0,0,0,1.247,4.665,3.474,3.474,0,0,0,3.025,1.339,3.379,3.379,0,0,0,3.121-1.548A8.02,8.02,0,0,0,12.263,8.5a9.523,9.523,0,0,0-.413-2.978A3.857,3.857,0,0,0,8.04,2.562Z" transform="translate(83.948 16.579)" fill="#484a54"/>
  <path id="Fill_11" data-name="Fill 11" d="M11.919,5.587A3.175,3.175,0,0,0,11.456,3.9a3.2,3.2,0,0,0-2.8-1.292C4.6,2.609,3.787,6.4,3.787,8.962a6.735,6.735,0,0,0,1.385,4.48A4.769,4.769,0,0,0,9.1,14.874a8.1,8.1,0,0,0,2.723-.321V11.039H8.591V8.27h6.815V16.6a17.2,17.2,0,0,1-6.1.922c-3.813,0-5.774-.922-7.092-2.211A8.681,8.681,0,0,1,0,9.08C0,3.164,3.7,0,8.752,0a7.526,7.526,0,0,1,5.684,2.1,5.1,5.1,0,0,1,1.2,3.485Z" transform="translate(101.823 16.46)" fill="#484a54"/>
  <path id="Fill_13" data-name="Fill 13" d="M3.652,16.7H0V.006H6.4C6.613,0,6.863,0,7.111,0a6.436,6.436,0,0,1,4.345,1.138,4.236,4.236,0,0,1,1.457,3.209,3.767,3.767,0,0,1-1.427,3.115,5.776,5.776,0,0,1-2.046.97l-.016,0c2.5.23,2.7,1.65,3,3.8l0,.033c.228,1.773.375,2.71.505,3.233a3.013,3.013,0,0,0,.484,1.163l.025.038H9.494c-.056-.313-.151-1.006-.261-1.81-.217-1.586-.488-3.559-.642-3.984-.322-.948-1.211-.948-1.8-.948H3.652V16.7ZM3.535,2.639V7.3H6.419a2.969,2.969,0,0,0,1.828-.462A2.308,2.308,0,0,0,9.172,4.9a2.091,2.091,0,0,0-.879-1.871,3.984,3.984,0,0,0-2.356-.389Z" transform="translate(120.297 16.918)" fill="#484a54"/>
  <path id="Fill_15" data-name="Fill 15" d="M0,0H11.179V2.724h-7.6V6.7h7.111V9.424H3.584v4.5h7.853V16.7H0Z" transform="translate(136.022 16.924)" fill="#484a54"/>
  <path id="Fill_17" data-name="Fill 17" d="M4.18,0,7.622,7.6,11.133,0h3.672L9.172,10.553v6.076H5.636v-6.12L0,0Z" transform="translate(148.794 16.991)" fill="#484a54"/>
  <g id="Group_21" data-name="Group 21">
    <path id="Clip_20-2" data-name="Clip 20" d="M0,0H34.93V39.092H0Z" transform="translate(0 0)" fill="none"/>
    <g id="Group_21-2" data-name="Group 21" transform="translate(0 0)" clip-path="url(#clip-path)">
      <path id="Fill_19" data-name="Fill 19" d="M34.711,28.718c.292-.588.319-1.1-.079-1.474-.985-.912-2.531.148-3.425.683-2.039,1.213-3.4,2.025-5.81,1.745-3.37-.39-4.19-3.875-3.8-6.75.4-2.962,1.805-5.736,2.784-8.532.937-2.678,3.03-5.043,3.257-7.968.1-1.214-.44-1.631-1.444-1.085-1.7.925-2.952,3.047-3.934,4.642a39.936,39.936,0,0,0-3.083,6.56c-.618,1.592-1.153,3.236-1.629,4.876.9-2.168.942-4.554,1.176-6.857.238-2.366.645-4.715.938-7.075a32.184,32.184,0,0,0,.464-6.241C20.087.65,19.789-.318,18.955.1c-2.084,1.05-2.405,3.99-3.094,5.973a36.263,36.263,0,0,0-1.6,6.634c-.271,1.814-.755,3.61-.977,5.431a32.915,32.915,0,0,0-.343-6.336,57.723,57.723,0,0,0-.779-7.5c-.182-.9-.638-2.133-1.671-1.414C9.1,3.86,9.033,5.53,8.8,7.155a46.19,46.19,0,0,0-.219,6.582c.007,2.107.041,4.2.119,6.307a19.76,19.76,0,0,0-1.282-5.32c-.383-1.158-.677-2.333-1.108-3.472-.3-.8-.737-2.535-1.744-2.69-1.917-.3-1.188,4.564-1.1,5.453.272,2.645.663,5.269,1.143,7.886a12.223,12.223,0,0,0,.31,1.949c-.653-1.276-1.365-2.524-2.022-3.8-.416-.8-.893-2.671-1.969-2.819-2.625-.357,1.05,9.845,1.539,11.062a27.523,27.523,0,0,0,3.265,6.075,12.776,12.776,0,0,0,2.3,2.418c3.021,2.415,6.944,2.731,10.6,1.874a29.972,29.972,0,0,0,11.969-5.788c.807-.613,3.111-2.156,4.1-4.154" transform="translate(0 0)" fill="#4399c6"/>
    </g>
  </g>
</svg>
