<svg id="logo-3" xmlns="http://www.w3.org/2000/svg" width="196" height="39" viewBox="0 0 196 39">
    <path id="Path" d="M3.746,18.993a4.228,4.228,0,0,1-2.718-.8A2.638,2.638,0,0,1,0,16V.489A.442.442,0,0,1,.124.127.416.416,0,0,1,.475,0H3.209c.309,0,.456.167.456.485V14.794c0,.636.277.954.846.954a2.283,2.283,0,0,0,.716-.084c.325,0,.5.1.521.4l.244,2.091a.444.444,0,0,1-.081.351.42.42,0,0,1-.31.168,5.983,5.983,0,0,1-1.855.318Z" transform="translate(59 13)" fill="#484a54"/>
    <path id="Shape" d="M1.957,11.2a6.629,6.629,0,0,1,0-9.405,8.058,8.058,0,0,1,10.135,0,6.727,6.727,0,0,1,0,9.388V11.2a8.025,8.025,0,0,1-10.135,0Z" transform="translate(66 19)" fill="#484a54"/>
    <path id="Shape-2" data-name="Shape" d="M7.229,18.993a7.861,7.861,0,0,1-4.562-1.264A5.062,5.062,0,0,1,.461,14.356c0-.338,0-.49.454-.49H3.744a.622.622,0,0,1,.555.388,2.211,2.211,0,0,0,1.027,1.2,3.945,3.945,0,0,0,1.885.438,2.978,2.978,0,0,0,2.172-.776,2.865,2.865,0,0,0,.791-2.108V11.944a5.63,5.63,0,0,1-3.5,1.1A6.529,6.529,0,0,1,1.892,11.2a6.755,6.755,0,0,1,0-9.377A6.576,6.576,0,0,1,6.674,0a5.647,5.647,0,0,1,3.586,1.164V.9a.438.438,0,0,1,.472-.49L13.525.392c.32,0,.472.168.472.489V12.973a5.5,5.5,0,0,1-1.869,4.334A7.059,7.059,0,0,1,7.542,19Q7.385,19,7.229,18.993Z" transform="translate(82 19)" fill="#484a54"/>
    <path id="Shape-3" data-name="Shape" d="M1.916,11.2a6.74,6.74,0,0,1,0-9.415,8.116,8.116,0,0,1,10.169,0,6.724,6.724,0,0,1,0,9.4V11.2a8.1,8.1,0,0,1-10.169,0Z" transform="translate(99 19)" fill="#484a54"/>
    <path id="Shape-4" data-name="Shape" d="M1.491,18.19a2.587,2.587,0,0,1-1.115-2.2V6.873A.417.417,0,0,1,.51,6.512.488.488,0,0,1,.9,6.386h3.02a.438.438,0,0,1,.5.487v7.913q0,.956.917.956a2.978,2.978,0,0,0,.808-.084c.36,0,.557.1.575.4l.27,2.1a.414.414,0,0,1-.089.351.477.477,0,0,1-.342.168,7.265,7.265,0,0,1-2.067.319c-.079,0-.158.005-.236.005A5.08,5.08,0,0,1,1.491,18.19ZM.682,3.536A1.963,1.963,0,0,1,0,2.061,1.966,1.966,0,0,1,.682.586a2.807,2.807,0,0,1,3.433,0A1.966,1.966,0,0,1,4.8,2.061a1.963,1.963,0,0,1-.682,1.475,2.709,2.709,0,0,1-1.716.6A2.712,2.712,0,0,1,.682,3.536Z" transform="translate(114 13)" fill="#484a54"/>
    <path id="Shape-5" data-name="Shape" d="M2.206,17.885a.386.386,0,0,1-.111-.349V4.131a.837.837,0,0,0-.246-.724.882.882,0,0,0-.743-.239H.554C.185,3.167,0,3.036,0,2.775V.845A.523.523,0,0,1,.387.306,5.148,5.148,0,0,1,2.2.012,3.116,3.116,0,0,1,5.228,1.646,5.721,5.721,0,0,1,9.365.012a6.662,6.662,0,0,1,4.792,1.766,6.585,6.585,0,0,1,0,9.138A6.612,6.612,0,0,1,9.365,12.7a5.866,5.866,0,0,1-3.5-1.063v5.9c0,.31-.167.458-.486.458H2.564A.414.414,0,0,1,2.491,18,.409.409,0,0,1,2.206,17.885Z" transform="translate(122 19)" fill="#484a54"/>
    <path id="Path-2" data-name="Path" d="M6.24,12.993a8.1,8.1,0,0,1-4.3-1.032A4.061,4.061,0,0,1,0,9.015c0-.333.117-.5.485-.5H2.945a.636.636,0,0,1,.552.366c.351.9,1.272,1.348,2.744,1.348a3.142,3.142,0,0,0,1.489-.3A.966.966,0,0,0,8.3,9.114c0-.433-.268-.732-.8-.932a9.09,9.09,0,0,0-1.957-.416A18.689,18.689,0,0,1,3.2,7.35,3.853,3.853,0,0,1,1.238,6.235a3.551,3.551,0,0,1,.719-5.161A6.919,6.919,0,0,1,6.006.009,7.424,7.424,0,0,1,9.955.991,3.713,3.713,0,0,1,11.8,3.6q0,.5-.452.5H8.867a.519.519,0,0,1-.5-.3,1.669,1.669,0,0,0-.87-.882,2.957,2.957,0,0,0-1.439-.333,2.924,2.924,0,0,0-1.422.283.833.833,0,0,0-.535.766,1.067,1.067,0,0,0,.8.982,9.105,9.105,0,0,0,1.991.5,21.982,21.982,0,0,1,2.326.433,3.853,3.853,0,0,1,1.957,1.115A3.137,3.137,0,0,1,12,8.948a3.325,3.325,0,0,1-1.556,2.9,7.339,7.339,0,0,1-4.2,1.149Z" transform="translate(139 19)" fill="#484a54"/>
    <path id="Path-3" data-name="Path" d="M14.994,11.185a.421.421,0,0,1-.082.324.445.445,0,0,1-.3.17,6.5,6.5,0,0,1-1.853.3A3.688,3.688,0,0,1,9.485,10.6,6.047,6.047,0,0,1,5.3,11.981a5.165,5.165,0,0,1-3.837-1.45A5.141,5.141,0,0,1,.006,6.692V.462A.407.407,0,0,1,.466,0H3.22A.407.407,0,0,1,3.68.462V6.214a2.771,2.771,0,0,0,.705,1.96,2.5,2.5,0,0,0,1.886.749,2.769,2.769,0,0,0,1.968-.7,2.509,2.509,0,0,0,.738-1.9V.462A.407.407,0,0,1,9.435,0h2.788a.407.407,0,0,1,.459.462v7.5c0,.621.279.924.82.924a2.663,2.663,0,0,0,.754-.08.437.437,0,0,1,.366.064.411.411,0,0,1,.175.319Z" transform="translate(154 20)" fill="#484a54"/>
    <path id="Path-4" data-name="Path" d="M25.987,12.158a.412.412,0,0,1-.071.35.428.428,0,0,1-.321.169,6.723,6.723,0,0,1-1.96.318,4.611,4.611,0,0,1-2.846-.8A2.6,2.6,0,0,1,19.649,10V6.068a2.927,2.927,0,0,0-.716-2.058,2.442,2.442,0,0,0-1.908-.786,2.148,2.148,0,0,0-1.7.736,2.942,2.942,0,0,0-.648,1.974v6.173a.425.425,0,0,1-.477.485h-2.88a.448.448,0,0,1-.368-.124.43.43,0,0,1-.126-.361V6.068a3.057,3.057,0,0,0-.665-2.058,2.232,2.232,0,0,0-1.7-.786,2.5,2.5,0,0,0-1.874.736,2.73,2.73,0,0,0-.7,1.974v6.173a.43.43,0,0,1-.126.361.448.448,0,0,1-.368.124H2.609a.425.425,0,0,1-.477-.485V4.227a.86.86,0,0,0-.25-.741.9.9,0,0,0-.755-.246H.564Q0,3.24,0,2.839V.865A.536.536,0,0,1,.393.313a5.2,5.2,0,0,1,1.84-.3A3.22,3.22,0,0,1,5.267,1.551,5.823,5.823,0,0,1,9.595.011a4.93,4.93,0,0,1,4.038,1.773A5.677,5.677,0,0,1,18.1.011a5.44,5.44,0,0,1,4.038,1.522,5.4,5.4,0,0,1,1.517,4.032V8.795c0,.636.29.954.835.954a2.6,2.6,0,0,0,.784-.084q.528,0,.562.4Z" transform="translate(170 19)" fill="#484a54"/>
    <path id="Shape-6" data-name="Shape" d="M6.332,36.986A5.719,5.719,0,0,0,2.7,35.813H0v-5.3H2.788A10.844,10.844,0,0,1,9.3,32.526a6.2,6.2,0,0,0,7.255,0,11.578,11.578,0,0,1,13.049,0,6.2,6.2,0,0,0,7.256,0A10.842,10.842,0,0,1,43.3,30.511H46v5.3H43.3a5.72,5.72,0,0,0-3.628,1.173,11.581,11.581,0,0,1-13.049,0,5.691,5.691,0,0,0-3.628-1.173,5.753,5.753,0,0,0-3.627,1.173,11.545,11.545,0,0,1-13.033,0Zm0-9.48A5.719,5.719,0,0,0,2.7,26.333H0v-5.3H2.788A10.844,10.844,0,0,1,9.3,23.046a6.2,6.2,0,0,0,7.255,0,11.578,11.578,0,0,1,13.049,0,6.2,6.2,0,0,0,7.256,0A10.842,10.842,0,0,1,43.3,21.031H46v5.3H43.3a5.72,5.72,0,0,0-3.628,1.173,11.581,11.581,0,0,1-13.049,0,5.691,5.691,0,0,0-3.628-1.173,5.753,5.753,0,0,0-3.627,1.173,11.545,11.545,0,0,1-13.033,0Zm26.7-7.185a4.755,4.755,0,0,1-.5-.313,17.317,17.317,0,0,0-19.061,0,4.755,4.755,0,0,1-.5.313h-.235a4.755,4.755,0,0,1-.5-.313A16.468,16.468,0,0,0,2.7,17.15H.688A22.922,22.922,0,0,1,23,0,22.922,22.922,0,0,1,45.311,17.15H43.3a16.468,16.468,0,0,0-9.523,2.858,4.755,4.755,0,0,1-.5.313Z" fill="#4399c6"/>
</svg>
